<?xml version="1.0" encoding="UTF-8"?>
<svg id="Calque_1" data-name="Calque 1" xmlns="http://www.w3.org/2000/svg" version="1.1" viewBox="0 0 1000 1000">
  <defs>
    <style>
      .cls-1 {
        fill: #000;
        stroke: #fff;
        stroke-miterlimit: 10;
        stroke-width: .2px;
      }

      .cls-2 {
        fill: #fff;
        stroke-width: 0px;
      }
    </style>
  </defs>
  <circle class="cls-1" cx="500" cy="506" r="468.5"/>
  <g id="Calque_2" data-name="Calque 2">
    <g id="Layer_1" data-name="Layer 1">
      <path class="cls-2" d="M753.7,352.1c0-98.7-85.6-164.9-177.3-177.1-69.9-9.3-99.5-1.9-135.2,8.6-32.4,9.6-49.4,31.4-49.4,31.4l-.6.3c.5.7.8,1.5,1.3,2.3,6.1,8.6,7.8,27.7,7.8,27.7.4,1.6.7,3.2,1,4.6l3.5,1c3.7-4.5,16.2-26.6,37.3-35.9,36.2-15.9,90.5-26.9,154.6-7.3,93.7,28.5,105.6,82.4,113.5,128.8,28,164.9-112,216-112,216l-2.5-202.2h-48.3l-68.2,221.9-64.6-221.9h-45.8l-26.5,277.9h29.5l20.9-238.7,71.8,238.7h24.9l3.2-21.4,73.7-220.9,1.9,175.4-18.6,4.1c-2.1.3-4.1.5-6.1.6-7.5.6-13.8.7-18.8.2l-1.5,2.7c.4.6,6.9,11,10.2,16.4,4,6.6,6.6,12.4,7.7,17.4,9.2-3.4,18.2-7.3,27-11.8l-.8,49.2c-9.5,6.3-19.4,11.9-29.7,16.8-11.7,5.4-23.8,9.9-36.2,13.3-13.2,3.7-27.5,5.6-43,5.6-25.4,0-49.1-3.9-70.8-11.8-21.5-7.7-40.9-20.1-56.9-36.3-16.2-16.3-28.8-37.1-37.8-62.1-9.1-25.1-13.6-54.8-13.6-89.1,0-34.4,4.5-64.1,13.6-89.1,9.1-25.1,21.7-45.8,37.8-62.1,16-16.2,35.5-28.7,56.9-36.3,21.8-7.9,45.4-11.8,70.8-11.8,15.5,0,29.8,2,42.7,5.9,12.1,3.6,23.8,8.5,34.9,14.6,9.5,5.3,18.6,11.3,27.2,18,7.8,6.2,13.8,11.8,18.1,16.8l3.9-1.2c1.3-6.6,3-14.9,5.2-24.8s5-17.8,8.4-23.6c-18.1-7.9-38.9-14.6-62.4-20.2-23.5-5.6-49.5-8.4-78-8.4-35.8,0-68.6,5-98.3,14.9-29.8,9.9-55.3,24.4-76.7,43.6-21.3,19-38,42.3-49.8,69.9-11.9,27.5-17.8,58.9-17.8,94.1,0,35.2,5.9,66.6,17.8,94.1,11.9,27.5,28.3,50.8,49.2,69.9,20.9,19,45.8,33.2,74.7,42.5,28.9,9.3,60.4,14,94.5,14,15.4,0,30.8-1.2,45.9-3.7,14.7-2.5,27.9-5.3,39.8-8.4,11.8-3.1,21.8-6.6,30.2-10.5v141.9h31.1l-.5-238.7s155.3-45.2,155.3-225.4Z"/>
      <path class="cls-2" d="M599.3,816.7h-32.1v-141.6c-8.2,3.8-18.2,7.2-29.6,10.2-11.8,3.1-25.2,5.9-39.8,8.4-15.2,2.5-30.6,3.8-46,3.7-34,0-65.8-4.7-94.6-14-28.8-9.3-54-23.7-74.9-42.7-20.9-19-37.5-42.6-49.3-70.1-11.8-27.5-17.8-59.1-17.8-94.3s6-66.8,17.8-94.3c11.8-27.4,28.6-51,49.9-70s47.2-33.6,76.8-43.6c29.7-9.9,62.8-14.9,98.5-14.9s54.6,2.8,78.1,8.4c23.4,5.6,44.4,12.3,62.5,20.2l.5.2-.3.5c-3.4,5.7-6.2,13.6-8.4,23.4s-3.9,18.2-5.2,24.8v.3c0,0-4.5,1.4-4.5,1.4l-.2-.3c-4.3-4.9-10.4-10.6-18-16.7-8.5-6.7-17.6-12.7-27.1-18-11.1-6.1-22.7-11-34.8-14.6-12.8-3.9-27.2-5.9-42.5-5.9-25.2,0-49,4-70.7,11.8-21.4,7.7-40.8,20.1-56.7,36.2-16,16.2-28.7,37.1-37.7,61.9-9,24.9-13.5,54.8-13.5,88.9s4.5,64.1,13.6,88.9c9,24.9,21.7,45.7,37.7,61.9,16,16.2,35.3,28.6,56.7,36.2,21.6,7.8,45.4,11.8,70.7,11.8s29.8-1.9,42.9-5.6c12.4-3.4,24.5-7.9,36.1-13.3,10.2-4.8,20.1-10.3,29.5-16.6l.7-48.1c-8.5,4.3-17.3,8.1-26.2,11.4l-.5.2v-.6c-1.2-4.9-3.8-10.7-7.8-17.2-3.3-5.5-9.8-15.8-10.1-16.4l-.2-.3,1.8-3.3h.3c6.2.5,12.5.4,18.7-.2,1.9-.2,3.9-.4,6.1-.6l18.2-4-1.9-172-72.7,218-3.2,21.7h-25.8v-.4c-.1,0-71.1-236.1-71.1-236.1l-20.7,236.5h-30.5v-.6c0,0,26.6-278.4,26.6-278.4h46.7v.4c.1,0,64.2,220.2,64.2,220.2l67.8-220.6h49.2v.5l2.5,201.5c5-2,37-15.4,65.6-45.8,18-18.9,31.5-41.6,39.7-66.3,10.1-30.9,12-65.5,5.6-103-7.1-41.8-16.8-99.1-113.1-128.4-70.8-21.5-127-4.7-154.3,7.3-17.5,7.7-29,24.2-34.5,32.2-1.1,1.6-2,2.9-2.6,3.6l-.2.3-4.1-1.2v-.3c-.3-1.3-.7-2.7-1-4.2v-.4c0-.3-1.9-19.2-7.8-27.6-.3-.5-.6-.9-.8-1.4-.2-.3-.3-.6-.5-.9l-.3-.5,1-.5c1.3-1.6,18.5-22.3,49.6-31.5,37.6-11.1,67.3-17.7,135.5-8.6,47.1,6.3,90.9,26.3,123.3,56.2,35.6,33,54.4,74.9,54.4,121.4s-8.2,78.7-24.3,111.5c-13.1,26.4-31.3,50-53.5,69.2-36.5,31.8-73.4,43.9-77.5,45.1l.5,238.8ZM568.2,815.7h30l-.5-238.5h.4c.4-.2,39.2-11.8,77.5-45.2,22.2-19.2,40.3-42.6,53.3-68.9,16.1-32.6,24.2-70,24.2-111s-18.7-87.9-54.1-120.6c-32.2-29.9-75.8-49.7-122.7-56-67.9-9.1-97.5-2.5-135,8.6-31.9,9.4-49,31-49.2,31.2l-.2.2c0,.1.2.3.2.4.2.4.5.9.8,1.3,6.1,8.6,7.8,27.2,7.9,28v.3c.4,1.4.7,2.7,1,3.9l2.9.8c.6-.8,1.4-1.9,2.4-3.3,5.6-8,17.2-24.7,34.9-32.5,27.4-12,83.9-29,155.1-7.3,42.1,12.8,71.2,31.7,89.2,57.9,15.4,22.4,20.5,46.5,24.7,71.3,6.4,37.7,4.5,72.5-5.7,103.6-8.2,24.9-21.8,47.7-39.9,66.7-31.2,33.1-66.3,46.1-66.7,46.3l-.6.2v-.7l-2.5-201.7h-47.5l-68.6,223.2-65-223.2h-45l-26.4,276.9h28.5l21.1-240.9.8,2.5,71.7,238.3h24.1l3.1-20.9,74.6-223.9v3l1.9,175.8h-.4c0,0-18.6,4.2-18.6,4.2-2.2.3-4.2.5-6.1.7-6.2.6-12.3.7-18.5.3l-1.2,2.2c1.1,1.7,6.9,11,10,16.2,3.9,6.4,6.5,12.1,7.7,17,9-3.4,17.8-7.2,26.3-11.6l.8-.4v.8l-.8,49.4h-.2c-9.5,6.5-19.5,12.1-29.8,17-11.7,5.4-23.9,9.9-36.3,13.4-13.1,3.7-27.7,5.6-43.2,5.6-25.4,0-49.3-4-71-11.8-21.5-7.7-41.1-20.2-57.1-36.4-16.2-16.4-28.9-37.3-38-62.3-9.1-25-13.6-55-13.6-89.3s4.6-64.3,13.6-89.3c9-25,21.8-45.9,38-62.3,16.1-16.3,35.6-28.7,57.1-36.4,21.7-7.8,45.6-11.8,71-11.8s29.9,2,42.8,5.9c12.2,3.6,23.9,8.5,35,14.6,9.6,5.3,18.7,11.3,27.2,18.1,7.6,6.1,13.6,11.6,18,16.6l3.3-1c1.3-6.6,3-14.9,5.1-24.6s4.8-17.5,8.2-23.3c-17.9-7.8-38.7-14.4-61.8-19.9-23.4-5.6-49.6-8.4-77.8-8.4s-68.6,5-98.2,14.9c-29.6,9.9-55.3,24.4-76.5,43.3-21.2,18.9-37.9,42.4-49.7,69.7-11.8,27.3-17.8,58.9-17.8,93.9s6,66.6,17.8,93.9c11.8,27.3,28.3,50.8,49,69.7,20.8,18.9,45.8,33.2,74.5,42.4,28.7,9.3,60.4,13.9,94.3,13.9,15.4,0,30.7-1.2,45.9-3.7,14.6-2.5,28-5.3,39.7-8.4s21.8-6.6,30.1-10.4l.7-.3v142.2Z"/>
    </g>
  </g>
</svg>